<svg xmlns="http://www.w3.org/2000/svg" viewBox="0 0 512 512">
  <defs>
    <radialGradient id="bgGlow" cx="0.5" cy="0.42" r="0.85">
      <stop offset="0" stop-color="#3A2560"/>
      <stop offset="0.55" stop-color="#1E1438"/>
      <stop offset="1" stop-color="#0B0B18"/>
    </radialGradient>
    <radialGradient id="disc" cx="0.5" cy="0.5" r="0.5">
      <stop offset="0" stop-color="#5A4186" stop-opacity="0.55"/>
      <stop offset="1" stop-color="#5A4186" stop-opacity="0"/>
    </radialGradient>
    <radialGradient id="vignette" cx="0.5" cy="0.5" r="0.75">
      <stop offset="0.62" stop-color="#000000" stop-opacity="0"/>
      <stop offset="1" stop-color="#000000" stop-opacity="0.45"/>
    </radialGradient>
    <linearGradient id="lacquer" x1="0" y1="0" x2="1" y2="0">
      <stop offset="0" stop-color="#FF6B7A"/>
      <stop offset="0.35" stop-color="#E6394F"/>
      <stop offset="1" stop-color="#A81D31"/>
    </linearGradient>
    <linearGradient id="beamTop" x1="0" y1="0" x2="0" y2="1">
      <stop offset="0" stop-color="#FFC9DA"/>
      <stop offset="0.55" stop-color="#FF9EBB"/>
      <stop offset="1" stop-color="#D8678D"/>
    </linearGradient>
    <linearGradient id="porcelain" x1="0" y1="0" x2="0" y2="1">
      <stop offset="0" stop-color="#FFFDF6"/>
      <stop offset="0.6" stop-color="#FFF6E9"/>
      <stop offset="1" stop-color="#EEDDC0"/>
    </linearGradient>
    <filter id="softShadow" x="-40%" y="-40%" width="180%" height="180%">
      <feDropShadow dx="0" dy="12" stdDeviation="12" flood-color="#000000" flood-opacity="0.45"/>
    </filter>
    <filter id="softBlur" x="-40%" y="-40%" width="180%" height="180%">
      <feGaussianBlur stdDeviation="7"/>
    </filter>
    <filter id="grain">
      <feTurbulence type="fractalNoise" baseFrequency="0.9" numOctaves="2" result="n"/>
      <feColorMatrix in="n" type="matrix" values="0 0 0 0 1  0 0 0 0 1  0 0 0 0 1  0 0 0 0.5 0"/>
    </filter>
  </defs>

  <!-- fondo squircle -->
  <rect x="16" y="16" width="480" height="480" rx="112" fill="#14122B"/>
  <rect x="16" y="16" width="480" height="480" rx="112" fill="url(#bgGlow)"/>

  <!-- estelas de luz -->
  <g filter="url(#softBlur)" fill="none" stroke-linecap="round">
    <path d="M70 330 Q180 260 330 268 Q420 272 452 220" stroke="#FF9EBB" stroke-width="10" opacity="0.22"/>
    <path d="M60 372 Q190 310 340 318 Q430 322 458 272" stroke="#7A5CFF" stroke-width="6" opacity="0.18"/>
  </g>

  <!-- halo tras el emblema -->
  <circle cx="256" cy="252" r="158" fill="url(#disc)"/>

  <!-- emblema torii + play -->
  <g filter="url(#softShadow)">
    <!-- viga superior con curva sori (extremos elevados) -->
    <path d="M104 132 Q256 96 408 132 L408 162 Q256 126 104 162 Z" fill="url(#beamTop)"/>
    <path d="M104 132 Q256 96 408 132" fill="none" stroke="#FFE3EC" stroke-width="5" stroke-linecap="round" opacity="0.8"/>
    <!-- viga inferior -->
    <path d="M126 198 Q256 178 386 198 L386 224 Q256 204 126 224 Z" fill="url(#lacquer)"/>
    <!-- pilares redondeados -->
    <rect x="148" y="212" width="48" height="182" rx="24" fill="url(#lacquer)"/>
    <rect x="316" y="212" width="48" height="182" rx="24" fill="url(#lacquer)"/>
    <!-- rim light izquierdo -->
    <rect x="154" y="222" width="9" height="162" rx="4.5" fill="#FFFFFF" opacity="0.38"/>
    <rect x="322" y="222" width="9" height="162" rx="4.5" fill="#FFFFFF" opacity="0.38"/>
    <!-- sombra interior derecha -->
    <rect x="181" y="222" width="9" height="162" rx="4.5" fill="#5E0E1E" opacity="0.5"/>
    <rect x="349" y="222" width="9" height="162" rx="4.5" fill="#5E0E1E" opacity="0.5"/>
    <!-- triángulo play con esquinas redondeadas -->
    <path d="M230 234 L318 276 L230 318 Z" fill="none" stroke="url(#porcelain)" stroke-width="34" stroke-linejoin="round"/>
    <path d="M230 234 L318 276 L230 318 Z" fill="url(#porcelain)"/>
    <path d="M244 250 L292 276" stroke="#FFFFFF" stroke-width="6" stroke-linecap="round" opacity="0.7"/>
  </g>

  <!-- sombra base del torii -->
  <ellipse cx="256" cy="402" rx="118" ry="16" fill="#000000" opacity="0.4" filter="url(#softBlur)"/>

  <!-- píldora de subtítulo -->
  <g filter="url(#softShadow)">
    <rect x="192" y="360" width="128" height="24" rx="12" fill="url(#porcelain)" opacity="0.92"/>
    <rect x="208" y="368" width="52" height="8" rx="4" fill="#E6394F" opacity="0.75"/>
    <rect x="266" y="368" width="38" height="8" rx="4" fill="#B9A8D6" opacity="0.8"/>
  </g>

  <!-- viñeta + grano cine -->
  <rect x="16" y="16" width="480" height="480" rx="112" fill="url(#vignette)"/>
  <rect x="16" y="16" width="480" height="480" rx="112" filter="url(#grain)" opacity="0.05"/>
</svg>
